<svg width="1440" height="885" viewBox="0 0 1440 885" fill="none" xmlns="http://www.w3.org/2000/svg">
<g clip-path="url(#clip0_2_9)">
<path d="M1440 115.727C1440 58.6901 1370.94 30.2668 1328.03 19.0149C1267.54 3.15386 1207.38 -23.2191 965.601 41.3327C893.587 60.5627 719.266 112.06 624.828 128.434C-11.5534 238.787 0.0142345 135.982 0.0142345 135.982V885H1440C1440 884.996 1440 269.389 1440 115.727Z" fill="#013A0E"/>
<path d="M1440 115.727C1440 58.6901 1370.94 30.2668 1328.03 19.0149C1267.54 3.15386 1207.38 -23.2191 965.601 41.3327C893.587 60.5627 719.266 112.06 624.828 128.434C-11.5534 238.787 0.0142345 135.982 0.0142345 135.982V885H1440C1440 884.996 1440 269.389 1440 115.727Z" fill="url(#paint0_linear_2_9)"/>
</g>
<defs>
<linearGradient id="paint0_linear_2_9" x1="965.645" y1="309.616" x2="306.804" y2="1090.79" gradientUnits="userSpaceOnUse">
<stop stop-color="#0C6821"/>
<stop offset="1" stop-color="#03B03E" stop-opacity="0.46"/>
</linearGradient>
<clipPath id="clip0_2_9">
<rect width="1440" height="885" fill="white"/>
</clipPath>
</defs>
</svg>
