<svg width="1110" height="446" viewBox="0 0 1110 446" fill="none" xmlns="http://www.w3.org/2000/svg">
<g clip-path="url(#clip0_1_3)">
<path d="M1078 0H32C14.3269 0 0 14.3269 0 32V414C0 431.673 14.3269 446 32 446H1078C1095.67 446 1110 431.673 1110 414V32C1110 14.3269 1095.67 0 1078 0Z" fill="#03B03E"/>
<path d="M1016.33 0C1010.82 58.7972 988.923 96.5813 1006.29 100.488C1023.48 104.36 1058.51 48.0927 1072.17 0H1016.33Z" fill="#05751F"/>
<path d="M0 147.471C20.7254 178.052 61.1322 205.012 117.999 232.771C166.289 256.348 24.874 104.24 0 50.3042V147.471Z" fill="#05751F"/>
<path d="M1110 212.782V37.5259C1093.22 90.4202 1061.24 169.456 1000.89 235.645C937.861 304.785 1003.29 179.756 966.308 191.166C929.33 202.568 869.683 323.94 740.282 357.808C610.881 391.677 458.919 380.121 399.002 370.535C339.084 360.949 345.861 354.255 368.845 349.858C391.838 345.46 265.047 331.443 124.757 264.377C72.2913 239.293 31.2815 207.24 0 179.834V446H1110V419.385C1108.17 365.303 1106.87 275.64 1108.17 244.336C1108.46 237.331 1109.14 226.283 1110 212.782Z" fill="#05751F"/>
</g>
<defs>
<clipPath id="clip0_1_3">
<rect width="1110" height="446" fill="white"/>
</clipPath>
</defs>
</svg>
